<?xml version="1.0" encoding="utf-8"?>
<!-- Generator: Adobe Illustrator 22.1.0, SVG Export Plug-In . SVG Version: 6.00 Build 0)  -->
<svg version="1.1" id="Слой_1" xmlns="http://www.w3.org/2000/svg" xmlns:xlink="http://www.w3.org/1999/xlink" x="0px" y="0px"
	 viewBox="0 0 30.2 30" style="enable-background:new 0 0 30.2 30;" xml:space="preserve">
<path d="M4.5,30h21.2c2.4,0,4.4-2,4.4-4.4V4.4c0-2.4-2-4.4-4.4-4.4H4.5C2.1,0,0.1,2,0.1,4.4v21.2C0.1,28,2.1,30,4.5,30z M1.9,4.4
	c0-1.5,1.2-2.6,2.6-2.6h21.2c1.5,0,2.6,1.2,2.6,2.6v21.2c0,1.5-1.2,2.6-2.6,2.6H4.5c-1.5,0-2.6-1.2-2.6-2.6V4.4z"/>
<path d="M15.1,22.9c4.4,0,7.9-3.5,7.9-7.9s-3.5-7.9-7.9-7.9S7.2,10.6,7.2,15S10.7,22.9,15.1,22.9z M15.1,8.8c3.4,0,6.2,2.8,6.2,6.2
	s-2.8,6.2-6.2,6.2S8.9,18.4,8.9,15S11.7,8.8,15.1,8.8z"/>
<path d="M23.9,8.8c1.5,0,2.6-1.2,2.6-2.6s-1.2-2.6-2.6-2.6s-2.6,1.2-2.6,2.6S22.4,8.8,23.9,8.8z M23.9,5.3c0.5,0,0.9,0.4,0.9,0.9
	s-0.4,0.9-0.9,0.9S23,6.7,23,6.2S23.4,5.3,23.9,5.3z"/>
</svg>
