<?xml version="1.0" encoding="utf-8"?>
<!-- Generator: Adobe Illustrator 22.1.0, SVG Export Plug-In . SVG Version: 6.00 Build 0)  -->
<svg version="1.1" id="Слой_1" xmlns="http://www.w3.org/2000/svg" xmlns:xlink="http://www.w3.org/1999/xlink" x="0px" y="0px"
	 viewBox="0 0 30 30" style="enable-background:new 0 0 30 30;" xml:space="preserve">
<path d="M11.8,30l3.5-3.5h8.8l5.8-5.8V0H4L0,4v22.5h7V30H11.8z M1.8,24.7v-20l3-3h23.5V20l-4.8,4.8h-8.8l-3.5,3.5H8.8v-3.5H1.8z"/>
<path d="M10.6,26l4.8-4.8h7.1l4-4V3.5H5.3v17.7h5.3V26z M7,19.5V5.3h17.7v11.2l-3,3h-7.1l-2.3,2.3v-2.3H7z"/>
<path d="M14.1,9.7h1.8v5.4h-1.8V9.7z"/>
<path d="M19.5,9.7h1.8v5.4h-1.8V9.7z"/>
</svg>
