<?xml version="1.0" encoding="utf-8"?>
<!-- Generator: Adobe Illustrator 22.1.0, SVG Export Plug-In . SVG Version: 6.00 Build 0)  -->
<svg version="1.1" id="Слой_1" xmlns="http://www.w3.org/2000/svg" xmlns:xlink="http://www.w3.org/1999/xlink" x="0px" y="0px"
	 viewBox="0 0 35 24.3" style="enable-background:new 0 0 35 24.3;" xml:space="preserve">
<path d="M33.3,1.7c-1.1-1.1-2.5-1.7-4-1.7H5.7C2.5,0,0,2.5,0,5.7v13c0,3.1,2.5,5.7,5.7,5.7h23.6c3.1,0,5.7-2.5,5.7-5.7l0-13
	C35,4.2,34.4,2.7,33.3,1.7z M32.9,18.7c0,2-1.6,3.6-3.6,3.6H5.7c-2,0-3.6-1.6-3.6-3.6v-13c0-2,1.6-3.6,3.6-3.6h23.7
	c1,0,1.9,0.4,2.6,1.1c0.7,0.7,1.1,1.6,1.1,2.6L32.9,18.7z"/>
<path d="M13.2,19.2l10.7-7l-10.7-7V19.2z M15.3,8.9l4.9,3.2l-4.9,3.2V8.9z"/>
</svg>
